<?xml version="1.0" standalone="no"?>
<!DOCTYPE svg PUBLIC "-//W3C//DTD SVG 20010904//EN"
 "http://www.w3.org/TR/2001/REC-SVG-20010904/DTD/svg10.dtd">
<svg version="1.0" xmlns="http://www.w3.org/2000/svg"
 width="500.000000pt" height="500.000000pt" viewBox="0 0 500.000000 500.000000"
 preserveAspectRatio="xMidYMid meet">
<metadata>
Created by potrace 1.11, written by Peter Selinger 2001-2013
</metadata>
<g transform="translate(0.000000,500.000000) scale(0.100000,-0.100000)"
fill="#000000" stroke="none">
<path d="M1519 3370 c-1 -3 -2 -395 -3 -872 -1 -572 2 -869 9 -871 5 -2 134
-3 285 -3 l275 1 2 385 c1 212 2 405 3 430 1 52 -5 57 85 -82 54 -84 155 -240
272 -420 24 -38 46 -68 48 -68 5 0 141 207 294 448 57 89 106 160 108 158 3
-2 5 -195 6 -428 l0 -423 281 1 c155 1 286 2 291 3 10 1 15 1740 5 1742 -3 1
-137 2 -299 3 -186 1 -298 -2 -307 -9 -11 -9 -100 -152 -302 -487 -36 -60 -68
-108 -71 -108 -6 0 -260 410 -270 435 -2 5 -7 12 -10 15 -7 5 -15 19 -61 98
-16 28 -36 53 -43 53 -40 4 -597 3 -598 -1z"/>
</g>
</svg>
